ffmpeg version n4.4.1 Copyright (c) 2000-2021 the FFmpeg developers
  built with gcc 11.1.0 (GCC)
  configuration: --prefix=/usr --disable-debug --disable-static --disable-stripping --enable-amf --enable-avisynth --enable-cuda-llvm --enable-lto --enable-fontconfig --enable-gmp --enable-gnutls --enable-gpl --enable-ladspa --enable-libaom --enable-libass --enable-libbluray --enable-libdav1d --enable-libdrm --enable-libfreetype --enable-libfribidi --enable-libgsm --enable-libiec61883 --enable-libjack --enable-libmfx --enable-libmodplug --enable-libmp3lame --enable-libopencore_amrnb --enable-libopencore_amrwb --enable-libopenjpeg --enable-libopus --enable-libpulse --enable-librav1e --enable-librsvg --enable-libsoxr --enable-libspeex --enable-libsrt --enable-libssh --enable-libsvtav1 --enable-libtheora --enable-libv4l2 --enable-libvidstab --enable-libvmaf --enable-libvorbis --enable-libvpx --enable-libwebp --enable-libx264 --enable-libx265 --enable-libxcb --enable-libxml2 --enable-libxvid --enable-libzimg --enable-nvdec --enable-nvenc --enable-shared --enable-version3
  libavutil      56. 70.100 / 56. 70.100
  libavcodec     58.134.100 / 58.134.100
  libavformat    58. 76.100 / 58. 76.100
  libavdevice    58. 13.100 / 58. 13.100
  libavfilter     7.110.100 /  7.110.100
  libswscale      5.  9.100 /  5.  9.100
  libswresample   3.  9.100 /  3.  9.100
  libpostproc    55.  9.100 / 55.  9.100
Splitting the commandline.
Reading option '-v' ... matched as option 'v' (set logging level) with argument 'debug'.
Reading option '-nostdin' ... matched as option 'stdin' (enable or disable interaction on standard input) with argument 0.
Reading option '-progress' ... matched as option 'progress' (write program-readable progress information) with argument '/tmp/KritaFFmpegProgress.ispjQI'.
Reading option '-r' ... matched as option 'r' (set frame rate (Hz value, fraction or abbreviation)) with argument '6'.
Reading option '-start_number' ... matched as AVOption 'start_number' with argument '0'.
Reading option '-i' ... matched as input url with argument '/home/dadard/REPOS/Prog/godot/GoGodotJam_2/images/player/animations/idle/gif/player_idle%04d.png'.
Reading option '-vf' ... matched as option 'vf' (set video filters) with argument 'palettegen'.
Reading option '-y' ... matched as option 'y' (overwrite output files) with argument '1'.
Reading option '/home/dadard/REPOS/Prog/godot/GoGodotJam_2/images/player/animations/idle/gif/palette.png' ... matched as output url.
Finished splitting the commandline.
Parsing a group of options: global .
Applying option v (set logging level) with argument debug.
Applying option nostdin (enable or disable interaction on standard input) with argument 0.
Applying option progress (write program-readable progress information) with argument /tmp/KritaFFmpegProgress.ispjQI.
[file @ 0x559f51933400] Setting default whitelist 'file,crypto,data'
Applying option y (overwrite output files) with argument 1.
Successfully parsed a group of options.
Parsing a group of options: input url /home/dadard/REPOS/Prog/godot/GoGodotJam_2/images/player/animations/idle/gif/player_idle%04d.png.
Applying option r (set frame rate (Hz value, fraction or abbreviation)) with argument 6.
Successfully parsed a group of options.
Opening an input file: /home/dadard/REPOS/Prog/godot/GoGodotJam_2/images/player/animations/idle/gif/player_idle%04d.png.
[image2 @ 0x559f519338c0] Opening '/home/dadard/REPOS/Prog/godot/GoGodotJam_2/images/player/animations/idle/gif/player_idle0000.png' for reading
[file @ 0x559f51939540] Setting default whitelist 'file,crypto,data'
[AVIOContext @ 0x559f51941980] Statistics: 708 bytes read, 0 seeks
[image2 @ 0x559f519338c0] Opening '/home/dadard/REPOS/Prog/godot/GoGodotJam_2/images/player/animations/idle/gif/player_idle0001.png' for reading
[file @ 0x559f51939c00] Setting default whitelist 'file,crypto,data'
[AVIOContext @ 0x559f51939dc0] Statistics: 691 bytes read, 0 seeks
[image2 @ 0x559f519338c0] Opening '/home/dadard/REPOS/Prog/godot/GoGodotJam_2/images/player/animations/idle/gif/player_idle0002.png' for reading
[file @ 0x559f5193a500] Setting default whitelist 'file,crypto,data'
[AVIOContext @ 0x559f5193a740] Statistics: 693 bytes read, 0 seeks
[image2 @ 0x559f519338c0] Opening '/home/dadard/REPOS/Prog/godot/GoGodotJam_2/images/player/animations/idle/gif/player_idle0003.png' for reading
[file @ 0x559f5193b140] Setting default whitelist 'file,crypto,data'
[AVIOContext @ 0x559f5193b4c0] Statistics: 706 bytes read, 0 seeks
Input #0, image2, from '/home/dadard/REPOS/Prog/godot/GoGodotJam_2/images/player/animations/idle/gif/player_idle%04d.png':
  Duration: 00:00:00.16, start: 0.000000, bitrate: N/A
  Stream #0:0, 4, 1/25: Video: png, 1 reference frame, rgba(pc), 50x50 [SAR 3937:3937 DAR 1:1], 0/1, 25 fps, 25 tbr, 25 tbn, 25 tbc
Successfully opened the file.
Parsing a group of options: output url /home/dadard/REPOS/Prog/godot/GoGodotJam_2/images/player/animations/idle/gif/palette.png.
Applying option vf (set video filters) with argument palettegen.
Successfully parsed a group of options.
Opening an output file: /home/dadard/REPOS/Prog/godot/GoGodotJam_2/images/player/animations/idle/gif/palette.png.
Successfully opened the file.
detected 4 logical cores
Stream mapping:
  Stream #0:0 -> #0:0 (png (native) -> png (native))
cur_dts is invalid st:0 (0) [init:0 i_done:0 finish:0] (this is harmless if it occurs once at the start per stream)
    Last message repeated 4 times
[graph 0 input from stream 0:0 @ 0x559f5194c300] Setting 'video_size' to value '50x50'
[graph 0 input from stream 0:0 @ 0x559f5194c300] Setting 'pix_fmt' to value '26'
[graph 0 input from stream 0:0 @ 0x559f5194c300] Setting 'time_base' to value '1/6'
[graph 0 input from stream 0:0 @ 0x559f5194c300] Setting 'pixel_aspect' to value '3937/3937'
[graph 0 input from stream 0:0 @ 0x559f5194c300] Setting 'frame_rate' to value '6/1'
[graph 0 input from stream 0:0 @ 0x559f5194c300] w:50 h:50 pixfmt:rgba tb:1/6 fr:6/1 sar:3937/3937
[format @ 0x559f5194c580] Setting 'pix_fmts' to value 'rgb24|rgba|rgb48be|rgba64be|pal8|gray|ya8|gray16be|ya16be|monob'
[auto_scaler_0 @ 0x559f5194e8c0] Setting 'flags' to value 'bicubic'
[auto_scaler_0 @ 0x559f5194e8c0] w:iw h:ih flags:'bicubic' interl:0
[Parsed_palettegen_0 @ 0x559f5194c200] auto-inserting filter 'auto_scaler_0' between the filter 'graph 0 input from stream 0:0' and the filter 'Parsed_palettegen_0'
[auto_scaler_1 @ 0x559f51950100] Setting 'flags' to value 'bicubic'
[auto_scaler_1 @ 0x559f51950100] w:iw h:ih flags:'bicubic' interl:0
[format @ 0x559f5194c580] auto-inserting filter 'auto_scaler_1' between the filter 'Parsed_palettegen_0' and the filter 'format'
[AVFilterGraph @ 0x559f5194b500] query_formats: 4 queried, 1 merged, 2 already done, 0 delayed
[auto_scaler_1 @ 0x559f51950100] picking rgba out of 10 ref:bgra alpha:1
[swscaler @ 0x559f51951980] Forcing full internal H chroma due to input having non subsampled chroma
[auto_scaler_0 @ 0x559f5194e8c0] w:50 h:50 fmt:rgba sar:3937/3937 -> w:50 h:50 fmt:bgra sar:1/1 flags:0x4
[swscaler @ 0x559f519663c0] Forcing full internal H chroma due to input having non subsampled chroma
[auto_scaler_1 @ 0x559f51950100] w:16 h:16 fmt:bgra sar:1/1 -> w:16 h:16 fmt:rgba sar:1/1 flags:0x4
cur_dts is invalid st:0 (0) [init:0 i_done:0 finish:0] (this is harmless if it occurs once at the start per stream)
    Last message repeated 3 times
[Parsed_palettegen_0 @ 0x559f5194c200] 3(+1) colors generated out of 3 colors; ratio=1.000000
[Parsed_palettegen_0 @ 0x559f5194c200] Dupped color: FF000000
cur_dts is invalid st:0 (0) [init:0 i_done:0 finish:0] (this is harmless if it occurs once at the start per stream)
Output #0, image2, to '/home/dadard/REPOS/Prog/godot/GoGodotJam_2/images/player/animations/idle/gif/palette.png':
  Metadata:
    encoder         : Lavf58.76.100
  Stream #0:0, 0, 1/6: Video: png, 1 reference frame, rgba(pc, gbr/unknown/unknown, progressive), 16x16 (0x0) [SAR 1:1 DAR 1:1], 0/1, q=2-31, 200 kb/s, 6 fps, 6 tbn
    Metadata:
      encoder         : Lavc58.134.100 png
Clipping frame in rate conversion by 0.000008
frame=    1 fps=0.0 q=0.0 size=N/A time=00:00:00.00 bitrate=N/A speed=   0x    cur_dts is invalid st:0 (0) [init:1 i_done:0 finish:0] (this is harmless if it occurs once at the start per stream)
[out_0_0 @ 0x559f5194c880] EOF on sink link out_0_0:default.
No more output streams to write to, finishing.
[image2 @ 0x559f5193fe40] Opening '/home/dadard/REPOS/Prog/godot/GoGodotJam_2/images/player/animations/idle/gif/palette.png' for writing
[file @ 0x559f51ad5080] Setting default whitelist 'file,crypto,data'
[AVIOContext @ 0x559f51ad5180] Statistics: 0 seeks, 1 writeouts
frame=    1 fps=0.0 q=-0.0 Lsize=N/A time=00:00:00.16 bitrate=N/A speed=  19x    
[AVIOContext @ 0x559f51933740] Statistics: 0 seeks, 2 writeouts
video:0kB audio:0kB subtitle:0kB other streams:0kB global headers:0kB muxing overhead: unknown
Input file #0 (/home/dadard/REPOS/Prog/godot/GoGodotJam_2/images/player/animations/idle/gif/player_idle%04d.png):
  Input stream #0:0 (video): 4 packets read (2798 bytes); 4 frames decoded; 
  Total: 4 packets (2798 bytes) demuxed
Output file #0 (/home/dadard/REPOS/Prog/godot/GoGodotJam_2/images/player/animations/idle/gif/palette.png):
  Output stream #0:0 (video): 1 frames encoded; 1 packets muxed (113 bytes); 
  Total: 1 packets (113 bytes) muxed
4 frames successfully decoded, 0 decoding errors
